# xmcd
#
# Track frame offsets:
#	150
#	19850
#	39382
#	54605
#	68744
#	84201
#	103136
#	118754
#	137597
#	155804
#	170651
#	186460
#	204439
#	220977
#	237169
#	252339
#	269058
#	283172
#	297975
#	314541
#
# Disc length: 4376 seconds
#
# Revision: 0
# Processed by: cddbd v1.5.2PL0 Copyright (c) Steve Scherf et al.
# Submitted via: audiograbber 1.83.01
#
DISCID=3c111614
DTITLE=Various Artist - Nickelodeon Kids Choice Awards 2011
DYEAR=2011
DGENRE=Pop
TTITLE0=LMFAO Feat. Lauren Bennett, GoonRock - Party Rock Anthem
TTITLE1=Lady Gaga - Born This Way
TTITLE2=Stan Walker - Loud
TTITLE3=Jessie J - Price Tag
TTITLE4=Ke$ha - We R Who We R
TTITLE5=The Black Eyes Peas - The Time (Dirty Bit)
TTITLE6=Jack Vidgen - Fly!
TTITLE7=Rihanna - California King Bed
TTITLE8=Alexis Jordan - Happiness
TTITLE9=Jessica Mauboy Feat. Stan Walker - What Happened To Us
TTITLE10=Justin Bieber - Pray
TTITLE11=Diddy - Dirty Money Feat. Skylar Grey - Coming Home
TTITLE12=Guy Sebastian Feat. Eve - Who's That Girl
TTITLE13=Havana Brown - We Run The Night
TTITLE14=Marvin Priest - Own This Club
TTITLE15=Justice Crew Feat. Flo Rida - Dance With Me
TTITLE16=Victorious Cast Feat. Victoria Justice - Make It Shine
TTITLE17=Big Time Rush - Big Time Rush
TTITLE18=Miranda Cosgrove - Dancing Crazy
TTITLE19=Vanessa Amorosi - Gossip
EXTD=
EXTT0=
EXTT1=
EXTT2=
EXTT3=
EXTT4=
EXTT5=
EXTT6=
EXTT7=
EXTT8=
EXTT9=
EXTT10=
EXTT11=
EXTT12=
EXTT13=
EXTT14=
EXTT15=
EXTT16=
EXTT17=
EXTT18=
EXTT19=
PLAYORDER=
